<svg width="94" height="36" viewBox="0 0 94 36" fill="none" xmlns="http://www.w3.org/2000/svg">
<path d="M0 5C0 2.23858 2.23858 0 5 0H10C12.7614 0 15 2.23858 15 5V10C15 12.7614 12.7614 15 10 15H5C2.23858 15 0 12.7614 0 10V5Z" fill="#A842D9"/>
<path d="M17.44 29C16.9707 29 16.3093 28.9893 15.456 28.968C14.624 28.9253 13.6853 28.8827 12.64 28.84C11.5947 28.776 10.5173 28.712 9.408 28.648C8.29867 28.584 7.22133 28.52 6.176 28.456C5.152 28.3707 4.224 28.2853 3.392 28.2C2.56 28.0933 1.90933 27.9973 1.44 27.912C1.44 27.6987 1.472 27.496 1.536 27.304C1.6 27.112 1.664 26.9733 1.728 26.888L2.656 26.792C3.06133 26.728 3.37067 26.5893 3.584 26.376C3.79733 26.1627 3.94667 25.832 4.032 25.384C4.13867 24.936 4.192 24.3387 4.192 23.592V10.952C4.192 10.312 4.224 9.82133 4.288 9.48C4.37333 9.11733 4.46933 8.86133 4.576 8.712C4.68267 8.54133 4.74667 8.44533 4.768 8.424H1.792C1.728 8.36 1.65333 8.24267 1.568 8.072C1.48267 7.90133 1.42933 7.70933 1.408 7.496C1.536 7.34667 1.728 7.19733 1.984 7.048C2.26133 6.87733 2.528 6.73867 2.784 6.632C3.06133 6.52533 3.264 6.472 3.392 6.472H17.536C17.984 6.64267 18.4427 6.89867 18.912 7.24C19.4027 7.58133 19.7867 7.93333 20.064 8.296C19.9787 9.64 19.8293 10.824 19.616 11.848C19.424 12.8507 19.2427 13.608 19.072 14.12C18.624 14.12 18.1973 14.0773 17.792 13.992C17.3867 13.8853 17.0667 13.7893 16.832 13.704L15.968 9.096C15.712 8.98933 15.3173 8.904 14.784 8.84C14.2507 8.75467 13.6213 8.68 12.896 8.616C12.1707 8.552 11.3707 8.52 10.496 8.52C9.96267 8.52 9.55733 8.63733 9.28 8.872C9.00267 9.08533 8.82133 9.37333 8.736 9.736C8.65067 10.0987 8.608 10.504 8.608 10.952V16.392C9.48267 16.3707 10.2827 16.3493 11.008 16.328C11.7547 16.2853 12.4587 16.232 13.12 16.168C13.7813 16.104 14.432 16.04 15.072 15.976L15.488 16.424C15.4453 16.8933 15.392 17.3093 15.328 17.672C15.264 18.0347 15.1893 18.312 15.104 18.504H8.608V24.424C8.608 24.936 8.544 25.384 8.416 25.768C8.288 26.1307 8.17067 26.3973 8.064 26.568H15.808L17.92 20.904C18.432 20.904 18.912 20.968 19.36 21.096C19.808 21.224 20.1067 21.3413 20.256 21.448C20.256 22.1733 20.224 22.92 20.16 23.688C20.1173 24.456 20.0533 25.1813 19.968 25.864C19.904 26.5467 19.8187 27.112 19.712 27.56C19.584 27.7307 19.36 27.9333 19.04 28.168C18.7413 28.3813 18.4427 28.5733 18.144 28.744C17.8453 28.9147 17.6107 29 17.44 29Z" fill="#1F1F1F"/>
<path d="M28.7513 29C28.5379 29 28.1646 28.968 27.6313 28.904C27.0979 28.8187 26.5006 28.7227 25.8393 28.616C25.1993 28.5093 24.6019 28.392 24.0473 28.264C23.5139 28.136 23.1193 28.0293 22.8633 27.944C22.8633 27.7733 22.8952 27.6027 22.9592 27.432C23.0232 27.24 23.0873 27.0907 23.1513 26.984L23.8873 26.856C24.2286 26.8133 24.4632 26.632 24.5912 26.312C24.7192 25.9707 24.7833 25.2987 24.7833 24.296V6.984C24.7833 6.81333 24.7406 6.65333 24.6553 6.504C24.5913 6.33333 24.4526 6.216 24.2393 6.152L21.9673 5.448C22.0099 5.17067 22.0739 4.936 22.1593 4.744C22.2446 4.53067 22.3192 4.38133 22.3832 4.296C22.6179 4.18933 22.9806 4.072 23.4713 3.944C23.9833 3.79467 24.5166 3.66667 25.0713 3.56C25.6259 3.45333 26.1059 3.4 26.5112 3.4C27.2579 3.4 27.8552 3.64533 28.3032 4.136C28.7726 4.60533 29.0072 5.20267 29.0072 5.928V24.936C29.0072 25.384 28.9539 25.768 28.8472 26.088C28.7406 26.3867 28.6446 26.6 28.5592 26.728L30.9272 27.016C30.9699 27.1013 31.0126 27.2293 31.0553 27.4C31.1193 27.5493 31.1513 27.72 31.1513 27.912C31.0233 28.0827 30.8099 28.2533 30.5112 28.424C30.2339 28.5947 29.9352 28.7333 29.6152 28.84C29.2952 28.9467 29.0073 29 28.7513 29Z" fill="#1F1F1F"/>
<path d="M39.6592 29C39.1046 29 38.5072 28.8933 37.8672 28.68C37.2486 28.4667 36.6512 28.2107 36.0752 27.912C35.4992 27.6133 35.0086 27.3253 34.6032 27.048C34.1979 26.7493 33.9206 26.5147 33.7713 26.344C33.4726 25.9173 33.2486 25.288 33.0993 24.456C32.9499 23.6027 32.8753 22.7067 32.8753 21.768C32.8753 20.936 32.9072 20.136 32.9712 19.368C33.0566 18.6 33.1526 17.9067 33.2593 17.288C33.3873 16.648 33.5259 16.136 33.6753 15.752C33.9739 15.56 34.4006 15.3147 34.9552 15.016C35.5099 14.696 36.1393 14.3867 36.8433 14.088C37.5473 13.7893 38.2619 13.5333 38.9873 13.32C39.7339 13.1067 40.4166 13 41.0353 13C41.4193 13 41.8779 13.0853 42.4113 13.256C42.9446 13.4053 43.4886 13.608 44.0433 13.864C44.5979 14.12 45.0886 14.3867 45.5153 14.664C45.9633 14.9413 46.2833 15.1973 46.4753 15.432C46.6459 15.7093 46.7739 16.1147 46.8593 16.648C46.9659 17.16 47.0406 17.7147 47.0833 18.312C47.1259 18.9093 47.1473 19.4853 47.1473 20.04C47.1473 21.2347 47.0619 22.3973 46.8913 23.528C46.7419 24.6373 46.5499 25.5227 46.3153 26.184C46.0806 26.4187 45.7179 26.696 45.2272 27.016C44.7579 27.336 44.2139 27.6453 43.5952 27.944C42.9766 28.2427 42.3259 28.4987 41.6432 28.712C40.9606 28.904 40.2992 29 39.6592 29ZM40.0433 26.312C40.2353 26.312 40.5019 26.28 40.8433 26.216C41.1846 26.1307 41.5259 26.0347 41.8672 25.928C42.2086 25.8213 42.4646 25.736 42.6353 25.672C42.7633 25.3947 42.8486 24.9573 42.8913 24.36C42.9339 23.7413 42.9552 23.1013 42.9552 22.44C42.9552 21.7573 42.9339 21.032 42.8913 20.264C42.8699 19.4747 42.8273 18.792 42.7633 18.216C42.6993 17.6187 42.6246 17.2667 42.5392 17.16C42.4752 17.032 42.2939 16.8613 41.9953 16.648C41.6966 16.4347 41.3659 16.2427 41.0033 16.072C40.6406 15.9013 40.3099 15.816 40.0112 15.816C39.7979 15.816 39.5099 15.848 39.1473 15.912C38.8059 15.976 38.4646 16.0613 38.1232 16.168C37.7819 16.2533 37.5152 16.3387 37.3232 16.424C37.2592 16.5947 37.1952 16.8613 37.1312 17.224C37.0886 17.5653 37.0459 17.96 37.0033 18.408C36.9819 18.856 36.9712 19.304 36.9712 19.752C36.9712 20.4773 36.9926 21.2027 37.0353 21.928C37.0779 22.6533 37.1313 23.2827 37.1953 23.816C37.2593 24.328 37.3232 24.648 37.3872 24.776C37.4512 24.84 37.5793 24.9573 37.7713 25.128C37.9846 25.2773 38.2299 25.448 38.5073 25.64C38.8059 25.832 39.0939 25.992 39.3713 26.12C39.6486 26.248 39.8726 26.312 40.0433 26.312ZM37.8993 10.92C37.6219 10.856 37.3659 10.7387 37.1312 10.568C36.8966 10.376 36.7259 10.2053 36.6193 10.056C37.3659 8.904 38.0912 7.90133 38.7952 7.048C39.4993 6.17333 40.1179 5.49066 40.6513 5C41.2059 4.50933 41.6006 4.264 41.8353 4.264C42.0273 4.264 42.2619 4.37067 42.5392 4.584C42.8379 4.79733 43.1259 5.07467 43.4033 5.416C43.6806 5.75733 43.8726 6.09867 43.9793 6.44L37.8993 10.92Z" fill="#1F1F1F"/>
<path d="M55.476 29C55.2627 29 54.8787 28.968 54.324 28.904C53.7693 28.8187 53.1507 28.7227 52.468 28.616C51.8067 28.5093 51.188 28.392 50.612 28.264C50.036 28.136 49.62 28.0293 49.364 27.944C49.364 27.7947 49.396 27.6347 49.46 27.464C49.5453 27.272 49.62 27.112 49.684 26.984L50.516 26.824C50.7507 26.7813 50.932 26.696 51.06 26.568C51.2093 26.44 51.316 26.2053 51.38 25.864C51.444 25.5227 51.476 25 51.476 24.296V16.584C51.476 16.392 51.4333 16.2213 51.348 16.072C51.2627 15.9227 51.1347 15.8053 50.964 15.72L49.172 15.08C49.2147 14.824 49.268 14.6 49.332 14.408C49.4173 14.1947 49.5133 14.024 49.62 13.896C49.9827 13.7253 50.516 13.5333 51.22 13.32C51.9453 13.1067 52.6173 13 53.236 13C53.9613 13 54.548 13.2453 54.996 13.736C55.4653 14.2053 55.7 14.8027 55.7 15.528V24.936C55.7 25.384 55.6467 25.768 55.54 26.088C55.4333 26.408 55.3373 26.6213 55.252 26.728L57.62 27.016C57.6627 27.1013 57.7053 27.2293 57.748 27.4C57.812 27.5493 57.844 27.72 57.844 27.912C57.7373 28.0827 57.5347 28.2533 57.236 28.424C56.9587 28.5947 56.6493 28.7333 56.308 28.84C55.988 28.9467 55.7107 29 55.476 29ZM53.012 10.184C52.8413 10.184 52.6173 10.0773 52.34 9.864C52.084 9.65067 51.828 9.384 51.572 9.064C51.316 8.744 51.092 8.424 50.9 8.104C50.7293 7.76267 50.644 7.496 50.644 7.304C50.644 7.112 50.7613 6.888 50.996 6.632C51.2307 6.376 51.5187 6.13067 51.86 5.896C52.2227 5.66133 52.5747 5.46933 52.916 5.32C53.2573 5.17067 53.524 5.096 53.716 5.096C53.9293 5.096 54.1533 5.20267 54.388 5.416C54.644 5.62933 54.8893 5.90667 55.124 6.248C55.3587 6.568 55.5507 6.89867 55.7 7.24C55.8707 7.56 55.956 7.82667 55.956 8.04C55.956 8.21067 55.8493 8.424 55.636 8.68C55.4227 8.91467 55.156 9.14933 54.836 9.384C54.516 9.61867 54.1853 9.81067 53.844 9.96C53.5027 10.1093 53.2253 10.184 53.012 10.184Z" fill="#1F1F1F"/>
<path d="M61.9567 29.192C61.7647 29.192 61.5194 29.0747 61.2207 28.84C60.9434 28.6053 60.6554 28.3173 60.3568 27.976C60.0794 27.6347 59.8447 27.2933 59.6527 26.952C59.4821 26.5893 59.3968 26.3013 59.3968 26.088C59.3968 25.8747 59.5248 25.64 59.7808 25.384C60.0368 25.1067 60.3461 24.84 60.7088 24.584C61.0928 24.328 61.4661 24.1253 61.8288 23.976C62.1914 23.8053 62.4901 23.72 62.7248 23.72C62.9168 23.72 63.1514 23.8373 63.4287 24.072C63.7061 24.3067 63.9728 24.6053 64.2288 24.968C64.4848 25.3093 64.6981 25.6613 64.8688 26.024C65.0394 26.3653 65.1247 26.6427 65.1247 26.856C65.1247 27.048 65.0074 27.2827 64.7728 27.56C64.5594 27.816 64.2714 28.072 63.9087 28.328C63.5674 28.584 63.2154 28.7973 62.8527 28.968C62.5114 29.1173 62.2127 29.192 61.9567 29.192Z" fill="#1F1F1F"/>
<path d="M73.4225 29C73.1238 29 72.7078 28.9147 72.1745 28.744C71.6625 28.5733 71.1398 28.3493 70.6065 28.072C70.0732 27.7947 69.6252 27.5173 69.2625 27.24C68.8998 26.9627 68.7185 26.7173 68.7185 26.504V15.08L66.2865 14.856C66.2865 14.3867 66.3292 14.024 66.4145 13.768C66.5212 13.4907 66.6172 13.32 66.7025 13.256L68.4625 12.968C68.7185 12.9253 68.8998 12.8293 69.0065 12.68C69.1132 12.5093 69.1665 12.2 69.1665 11.752V8.392C69.4225 8.17867 69.8172 7.96533 70.3505 7.752C70.8838 7.51733 71.4278 7.4 71.9825 7.4L72.6865 7.88V13H75.9505L76.3345 13.416C76.3132 13.8 76.2385 14.1627 76.1105 14.504C75.9825 14.824 75.8545 15.0693 75.7265 15.24L72.9105 15.176V26.184L76.1105 26.696C76.1532 26.7813 76.2065 26.92 76.2705 27.112C76.3558 27.2827 76.3985 27.496 76.3985 27.752C76.2065 27.9867 75.9398 28.2 75.5985 28.392C75.2572 28.584 74.8945 28.7333 74.5105 28.84C74.1478 28.9467 73.7852 29 73.4225 29Z" fill="#1F1F1F"/>
<path d="M83.88 35.4C83.5813 35.4 83.176 35.3147 82.664 35.144C82.1733 34.9733 81.64 34.7493 81.064 34.472C80.5093 34.1947 79.976 33.8747 79.464 33.512C78.9733 33.1707 78.568 32.808 78.248 32.424C77.928 32.0613 77.768 31.7093 77.768 31.368C77.768 31.0053 77.928 30.6 78.248 30.152C78.568 29.704 78.9627 29.2773 79.432 28.872C79.9013 28.4453 80.36 28.104 80.808 27.848C80.68 27.6987 80.552 27.496 80.424 27.24C80.296 26.984 80.232 26.76 80.232 26.568C80.232 26.3973 80.3493 26.152 80.584 25.832C80.84 25.512 81.128 25.192 81.448 24.872C81.7893 24.552 82.0773 24.3067 82.312 24.136L83.816 24.488L83.656 25.96C83.8693 25.9813 84.264 26.024 84.84 26.088C85.4373 26.152 86.12 26.2267 86.888 26.312C87.6773 26.3973 88.456 26.5147 89.224 26.664C90.0133 26.792 90.7067 26.9413 91.304 27.112C91.9013 27.2613 92.3173 27.432 92.552 27.624C92.6587 27.9013 92.7333 28.232 92.776 28.616C92.84 29 92.872 29.352 92.872 29.672C92.872 30.3547 92.8187 31.048 92.712 31.752C92.6053 32.456 92.456 33.0213 92.264 33.448C91.9867 33.6613 91.56 33.8853 90.984 34.12C90.4293 34.3547 89.768 34.568 89 34.76C88.232 34.952 87.4 35.1013 86.504 35.208C85.6293 35.336 84.7547 35.4 83.88 35.4ZM85.192 32.808C85.5333 32.808 85.9493 32.776 86.44 32.712C86.952 32.6693 87.464 32.5947 87.976 32.488C88.488 32.4027 88.904 32.3173 89.224 32.232C89.2667 32.104 89.2987 31.9013 89.32 31.624C89.3413 31.368 89.352 31.144 89.352 30.952C89.352 30.696 89.3307 30.44 89.288 30.184C89.2667 29.9493 89.2347 29.7573 89.192 29.608C89.128 29.5653 88.8933 29.5013 88.488 29.416C88.104 29.3307 87.624 29.2347 87.048 29.128C86.4933 29.0427 85.9173 28.9573 85.32 28.872C84.744 28.7653 84.232 28.68 83.784 28.616C83.3573 28.552 83.0907 28.5093 82.984 28.488C82.792 28.7227 82.5893 28.9787 82.376 29.256C82.1627 29.5547 81.9813 29.8213 81.832 30.056C81.704 30.312 81.64 30.504 81.64 30.632C81.64 30.7813 81.7893 30.9733 82.088 31.208C82.3867 31.464 82.7387 31.7093 83.144 31.944C83.5707 32.1787 83.976 32.3813 84.36 32.552C84.744 32.7227 85.0213 32.808 85.192 32.808ZM83.688 24.904C83.1547 24.7547 82.632 24.6053 82.12 24.456C81.608 24.2853 81.1387 24.1147 80.712 23.944C80.3067 23.7733 79.9547 23.6027 79.656 23.432C79.3787 23.24 79.176 23.0693 79.048 22.92C78.8987 22.6853 78.7387 22.2907 78.568 21.736C78.4187 21.16 78.344 20.5413 78.344 19.88C78.344 18.856 78.4187 17.9493 78.568 17.16C78.7387 16.3493 78.8987 15.6987 79.048 15.208C79.2613 15.08 79.6453 14.8987 80.2 14.664C80.7547 14.408 81.384 14.152 82.088 13.896C82.792 13.64 83.4853 13.4267 84.168 13.256C84.872 13.0853 85.4693 13 85.96 13C86.28 13 86.6427 13.0427 87.048 13.128C87.4533 13.2133 87.7947 13.288 88.072 13.352C88.5627 13.288 89.128 13.1387 89.768 12.904C90.408 12.648 91.016 12.3707 91.592 12.072C92.1893 11.7733 92.648 11.528 92.968 11.336L93.608 11.72C93.6293 12.1467 93.608 12.5947 93.544 13.064C93.48 13.5333 93.3947 13.9173 93.288 14.216C92.7973 14.4293 92.264 14.5893 91.688 14.696C91.1333 14.8027 90.568 14.8667 89.992 14.888V15.08C90.1413 15.1867 90.3227 15.3253 90.536 15.496C90.7707 15.6667 90.9733 15.8907 91.144 16.168C91.272 16.5093 91.3787 16.9467 91.464 17.48C91.5493 17.992 91.592 18.472 91.592 18.92C91.592 19.7093 91.5173 20.4773 91.368 21.224C91.24 21.9493 91.0693 22.5253 90.856 22.952C90.6 23.1867 90.12 23.4533 89.416 23.752C88.712 24.0293 87.8587 24.2747 86.856 24.488C85.8747 24.7013 84.8187 24.84 83.688 24.904ZM85.192 22.856C85.3627 22.856 85.5867 22.824 85.864 22.76C86.1413 22.696 86.408 22.6213 86.664 22.536C86.92 22.4293 87.112 22.344 87.24 22.28C87.3893 21.9813 87.496 21.5653 87.56 21.032C87.6453 20.4773 87.688 19.912 87.688 19.336C87.688 18.6747 87.656 18.0453 87.592 17.448C87.528 16.8507 87.4427 16.4667 87.336 16.296C87.272 16.1893 87.1013 16.0613 86.824 15.912C86.568 15.7413 86.2907 15.592 85.992 15.464C85.7147 15.336 85.4907 15.272 85.32 15.272C85.128 15.272 84.872 15.304 84.552 15.368C84.232 15.432 83.9013 15.5067 83.56 15.592C83.24 15.6773 82.9627 15.7733 82.728 15.88C82.6213 16.136 82.536 16.4987 82.472 16.968C82.408 17.416 82.376 17.9173 82.376 18.472C82.376 18.9627 82.3973 19.4427 82.44 19.912C82.4827 20.3813 82.536 20.7867 82.6 21.128C82.664 21.4693 82.728 21.6933 82.792 21.8C82.8987 21.9067 83.1013 22.0453 83.4 22.216C83.72 22.3867 84.0507 22.536 84.392 22.664C84.7333 22.792 85 22.856 85.192 22.856Z" fill="#1F1F1F"/>
</svg>
