<svg width="32" height="32" viewBox="0 0 32 32" fill="none" xmlns="http://www.w3.org/2000/svg">
<g clip-path="url(#clip0_31_36)">
<path d="M10.052 30C22.128 30 28.734 19.994 28.734 11.332C28.7367 11.0507 28.7327 10.7694 28.722 10.488C30.0077 9.55653 31.1176 8.40394 32 7.08404C30.7982 7.61259 29.5253 7.96165 28.222 8.12004C29.5952 7.29946 30.6236 6.00807 31.116 4.48604C29.8265 5.25149 28.4144 5.78807 26.942 6.07204C25.9524 5.01809 24.6428 4.31988 23.2162 4.08556C21.7895 3.85124 20.3254 4.09389 19.0507 4.77592C17.7759 5.45795 16.7616 6.5413 16.1649 7.85816C15.5682 9.17503 15.4224 10.6519 15.75 12.06C13.1394 11.9298 10.5853 11.2519 8.25366 10.0704C5.92202 8.88888 3.86495 7.2302 2.216 5.20204C1.37916 6.64833 1.1239 8.35881 1.50201 9.98641C1.88013 11.614 2.86329 13.0368 4.252 13.966C3.21082 13.9324 2.19239 13.6528 1.28 13.15V13.24C1.28255 14.7548 1.80764 16.2223 2.76665 17.3948C3.72565 18.5674 5.05984 19.3731 6.544 19.676C5.98054 19.8313 5.39846 19.9087 4.814 19.906C4.40184 19.9103 3.99033 19.8721 3.586 19.792C4.00479 21.0966 4.82155 22.2374 5.92167 23.0541C7.02179 23.8709 8.35004 24.3226 9.72 24.346C7.39221 26.172 4.51849 27.163 1.56 27.16C1.0386 27.164 0.517492 27.1339 0 27.07C3.00284 28.985 6.49053 30.0016 10.052 30Z" fill="#F2F2F2"/>
</g>
<defs>
<clipPath id="clip0_31_36">
<rect width="32" height="32" fill="white"/>
</clipPath>
</defs>
</svg>
